<svg width="181" height="33" viewBox="0 0 181 33" fill="none" xmlns="http://www.w3.org/2000/svg">
    <path fill-rule="evenodd" clip-rule="evenodd" d="M19.796 6.009h6.247V.902h-6.247V6.01zM0 .963v6.345h5.456v24.596h6.96V7.308h5.613V.963H0zM35.73 6.01h-6.248V.902h6.248V6.01zm-6.287 2.206v16.962c0 1.23-.712 1.947-1.819 1.99-1.186.084-1.463-.887-1.542-1.99V8.215h-6.287v19.459c0 3.215 1.977 4.992 5.614 4.992 1.978 0 3.797-1.861 4.39-3.68h.08v2.918h5.85V8.215h-6.286zm9.965 23.689V8.215h5.852v3.596h.079c.712-2.539 2.254-4.273 4.863-4.273v7.615a9.603 9.603 0 0 0-1.897-.17c-1.78 0-2.49.381-2.61 2.328v14.593h-6.287zm18.89 0V24.29l1.067-1.522 3.678 9.136h6.603l-6.326-14.17 6.247-9.519h-6.88l-4.31 7.91h-.08V.963h-6.286v30.941h6.286zM75.102 7.308h-5.457V.963h18.03v6.345h-5.614v24.596h-6.959V7.308zm51.321 24.596V24.29l1.068-1.522 3.678 9.136h6.602l-6.326-14.17 6.248-9.519h-6.881l-4.31 7.91h-.079V.963h-6.286v30.941h6.286zm-37.819 0V8.215h5.851v3.596h.081c.711-2.539 2.254-4.273 4.862-4.273v7.615a9.595 9.595 0 0 0-1.897-.17c-1.78 0-2.491.381-2.61 2.328v14.593h-6.287zm22.923-7.784c-.04 1.524-.435 3.597-2.293 3.597-1.503 0-2.333-1.058-2.333-2.54 0-1.607.673-2.451 1.462-3.044.483-.387 1.085-.68 1.768-1.014.435-.212.903-.44 1.396-.72v3.721zm.672 7.784h6.128c-.277-.845-.513-1.734-.513-2.622v-14.51c0-5.203-2.255-7.234-8.462-7.234-5.061 0-8.778 2.242-8.501 8.165h6.287l.014-.236v-.004c.108-1.883.197-3.44 2.399-3.44 1.264 0 1.976 1.141 1.976 2.453 0 2.082-1.839 2.656-4.005 3.333-.474.147-.963.3-1.452.474-2.767.972-5.496 2.666-5.496 8.039 0 3.763 2.214 6.344 5.773 6.344 2.49 0 3.835-1.014 5.417-2.876l.435 2.114zm28.085-5.118V13.08h-2.492V8.215h2.492V1.053h6.287v7.162h3.004v4.865h-3.004v12.48c0 1.354.552 1.649 1.383 1.649.556-.1.822-.095 1.232-.088.115.001.242.003.389.003v4.738c-1.345.211-2.648.381-4.032.381-3.401 0-5.259-1.861-5.259-5.457zm19.861-21.17h6.248V.902h-6.248v4.714zm-1.186 22.185c1.306 0 1.819-.72 1.939-2.072V15.153c0-1.522-.475-2.75-1.939-2.75-1.462 0-1.938 1.228-1.938 2.75V25.73c.12 1.352.634 2.072 1.938 2.072zm-8.223-12.14c0-6.092 3.36-8.123 8.223-8.123 5.535 0 8.224 2.792 8.224 8.123v9.644c-.316 5.372-3.439 7.361-8.224 7.361-4.508 0-8.223-1.947-8.223-7.361V15.66zm.869-10.045h6.247V.902h-6.247v4.714zm18.438 26.288V8.215h5.853v3.596h.079c.711-2.539 2.253-4.273 4.863-4.273v7.615a9.594 9.594 0 0 0-1.898-.17c-1.779 0-2.49.381-2.609 2.328v14.593h-6.288z" fill="#fff"/>
</svg>
