<?xml version="1.0" encoding="UTF-8"?><svg id="Layer_1" xmlns="http://www.w3.org/2000/svg" viewBox="0 0 2160 2160"><defs><style>.cls-1{fill:#d91419;}.cls-2{fill:#fff;}</style></defs><path class="cls-2" d="m1431.52,1010.24c-3.57-3.57-7.9-5.35-13-5.35s-9.43,1.79-13,5.35c-3.57,3.57-5.35,7.9-5.35,13v94.02c0,5.56-4.51,10.07-10.07,10.07-1.56,0-3.02-.39-4.34-1.02-.24-.09-.51-.22-.82-.4l-58.65-35.86-129.93-79.43c-2.81-1.78-5.93-3.18-9.37-4.21-3.44-1.02-6.95-1.53-10.52-1.53-10.46,0-19.18,3.57-26.19,10.71-7.01,7.14-10.52,15.93-10.52,26.38v111.27c0,5.1,1.78,9.43,5.35,13,3.57,3.57,7.9,5.35,13,5.35s9.43-1.78,13-5.35c3.57-3.57,5.35-7.9,5.35-13v-92.53c0-.39.03-.7.05-1.02,0-.16-.05-.31-.05-.47,0-5.56,4.51-10.07,10.07-10.07,1.5,0,2.91.35,4.18.94.28.11.58.25.92.45l14.78,9.03,173.86,106.29c2.8,1.79,5.93,3.19,9.37,4.21,3.44,1.02,6.94,1.53,10.52,1.53,10.45,0,19.18-3.57,26.19-10.71,7.01-7.13,10.52-15.93,10.52-26.38v-111.27c0-5.1-1.79-9.43-5.35-13Z"/><g><path class="cls-2" d="m419.74,1004.89c7.13,0,13.83,1.34,20.08,4.01,6.24,2.68,11.72,6.31,16.44,10.9,4.71,4.59,8.41,9.94,11.09,16.06,2.68,6.12,4.01,12.75,4.01,19.88s-1.34,13.77-4.01,19.88c-2.68,6.12-6.38,11.47-11.09,16.06-4.72,4.59-10.2,8.22-16.44,10.9-6.25,2.68-12.94,4.01-20.08,4.01h-210.69v46.65c0,5.1-1.85,9.43-5.54,13-3.7,3.57-7.97,5.35-12.81,5.35-5.1,0-9.43-1.78-13-5.35-3.57-3.57-5.35-7.9-5.35-13v-130.01c0-5.1,1.78-9.43,5.35-13,3.57-3.57,7.9-5.35,13-5.35h229.05Zm-210.69,36.71v28.3h212.22c3.82,0,7.2-1.34,10.13-4.01,2.93-2.68,4.4-6.05,4.4-10.13,0-3.82-1.47-7.13-4.4-9.94-2.93-2.8-6.31-4.21-10.13-4.21h-212.22Z"/><path class="cls-2" d="m541.71,1167.59c-6.38-2.68-11.92-6.31-16.63-10.9-4.72-4.59-8.48-9.94-11.28-16.06-2.81-6.12-4.21-12.74-4.21-19.88v-97.51c0-5.1,1.78-9.43,5.35-13,3.57-3.57,7.9-5.35,13-5.35,4.84,0,9.11,1.79,12.81,5.35,3.69,3.57,5.54,7.9,5.54,13v97.51c0,3.82,1.46,7.14,4.4,9.94,2.93,2.81,6.31,4.21,10.13,4.21h205.35c5.1,0,9.43,1.79,13,5.35,3.57,3.57,5.35,7.9,5.35,13s-1.79,9.43-5.35,13c-3.57,3.57-7.9,5.35-13,5.35h-204.21c-7.14,0-13.9-1.34-20.27-4.01Z"/></g><path class="cls-2" d="m1099.99,1146.18c-1.02-2.16-2.29-4.14-3.82-5.93l-92.92-124.28c-4.34-5.86-9.94-10.45-16.83-13.77-6.88-3.31-14.15-4.97-21.8-4.97-8.16,0-15.81,1.85-22.94,5.54-7.14,3.7-12.88,8.48-17.21,14.34l-92.92,125.04c-2.55,2.81-3.82,6.5-3.82,11.09,0,5.1,1.78,9.43,5.35,13,3.57,3.57,7.9,5.35,13,5.35,5.6,0,10.32-2.29,14.15-6.88l88.32-117.26s1.67-2.19,6.81-8.85c2.31-2.67,5.68-4.39,9.48-4.39s7.16,1.72,9.47,4.38c5.3,7.04,44.78,59.63,44.78,59.63l49.54,66.12c3.57,4.85,8.41,7.27,14.53,7.27,5.1,0,9.43-1.78,13-5.35,3.57-3.57,5.35-7.9,5.35-13,0-2.55-.51-4.91-1.53-7.07Z"/><path class="cls-2" d="m1705.85,1102.59c-6.12-2.68-11.47-6.31-16.06-10.9-4.59-4.59-8.22-9.94-10.9-16.06-2.68-6.12-4.01-12.74-4.01-19.88s1.34-13.77,4.01-19.88c2.68-6.12,6.31-11.47,10.9-16.06,4.59-4.59,9.94-8.22,16.06-10.9,6.12-2.68,12.74-4.01,19.88-4.01h232.11c5.1,0,9.43,1.79,13,5.35,3.57,3.57,5.35,7.9,5.35,13s-1.79,9.43-5.35,13c-3.57,3.57-7.9,5.35-13,5.35h-232.87c-3.82,0-7.21,1.34-10.13,4.01-2.93,2.68-4.4,6.06-4.4,10.13,0,3.82,1.46,7.14,4.4,9.94,2.93,2.81,6.31,4.21,10.13,4.21h211.46c7.13,0,13.83,1.34,20.08,4.02,6.24,2.68,11.66,6.31,16.25,10.9,4.59,4.59,8.22,10.01,10.9,16.25,2.68,6.25,4.01,12.94,4.01,20.08s-1.34,13.77-4.01,19.88c-2.68,6.12-6.31,11.47-10.9,16.06-4.59,4.59-10.01,8.16-16.25,10.71-6.25,2.55-12.94,3.82-20.08,3.82h-231.73c-5.1,0-9.43-1.78-13-5.35-3.57-3.57-5.35-7.9-5.35-13s1.78-9.43,5.35-13c3.57-3.57,7.9-5.35,13-5.35h233.25c3.82,0,7.13-1.34,9.94-4.01,2.8-2.68,4.21-5.93,4.21-9.75,0-4.07-1.4-7.52-4.21-10.32-2.81-2.8-6.12-4.21-9.94-4.21h-212.22c-7.14,0-13.77-1.34-19.88-4.01Z"/><g><g><path class="cls-2" d="m707.24,724.2l11.94-9.99,2.98-2.49,3.11-2.34,6.2-4.68c4.16-3.08,8.15-6.36,12.38-9.34l12.76-8.8,6.37-4.39,6.59-4.07,13.14-8.12c35.49-20.87,73.21-37.52,112.26-49.27,4.82-1.64,9.79-2.81,14.71-4.14l14.75-3.92,14.93-3.14c4.98-1,9.91-2.23,14.96-2.89,10.06-1.45,20-3.44,30.13-4.26l15.11-1.61c5.05-.4,10.12-.57,15.17-.86l7.58-.4c2.52-.14,5.05-.3,7.58-.24l15.17-.02,7.58-.03c2.52.05,5.05.23,7.57.33l15.13.72c2.52.07,5.03.32,7.54.59l7.53.75c5.01.55,10.04.87,15.03,1.6l14.94,2.24,7.47,1.1,7.4,1.47,14.8,2.93c4.91,1.08,9.76,2.41,14.64,3.6,9.8,2.22,19.35,5.38,28.96,8.26,4.83,1.34,9.49,3.24,14.24,4.86,4.71,1.72,9.48,3.26,14.14,5.11l13.9,5.72c2.31.97,4.65,1.87,6.94,2.89l6.8,3.2,13.59,6.38,13.27,7.03,6.63,3.51c2.21,1.17,4.32,2.53,6.49,3.77l12.93,7.61c4.29,2.56,8.39,5.44,12.6,8.14,4.15,2.78,8.44,5.36,12.42,8.4l12.12,8.82,3.03,2.2,2.92,2.34,5.84,4.69c15.73,12.33,30.32,26.01,44.5,40.04l10.26,10.9c1.7,1.83,3.44,3.61,5.11,5.47l4.86,5.69,9.73,11.37,9.17,11.82c24.53,31.47,44.65,66.23,60.65,102.7,22.49,51.32,35.88,106.56,39.62,162.55.65,9.75,1.67,13.11,7.77,9.41,10.41-6.31,23.36-21.62,25.78-26.1,5.07-9.38,4.76-19.53,4.76-22.28s-1.2-10.78-2.23-16.1c-1.87-10.68-3.59-21.4-6.22-31.93-1.25-5.28-2.33-10.6-3.72-15.84l-4.41-15.66-2.23-7.82-2.59-7.71-5.19-15.42c-1.89-5.08-3.93-10.11-5.89-15.17-1.99-5.05-3.87-10.14-6.22-15.03-34.81-79.49-89.71-150.14-158.51-202.75l-6.43-4.95-3.22-2.47-3.33-2.32-13.32-9.28c-4.37-3.19-9.06-5.9-13.61-8.82-4.6-2.83-9.1-5.84-13.8-8.52l-14.13-7.95c-2.37-1.3-4.68-2.7-7.11-3.89l-7.26-3.6-14.53-7.17-14.85-6.48c-39.6-17.27-81.57-28.7-124.06-35.23-42.52-6.62-85.76-7.29-128.29-2.95-5.32.59-10.64,1.05-15.94,1.75l-15.83,2.51c-10.59,1.43-20.97,4.02-31.4,6.21-5.23,1.01-10.34,2.6-15.49,3.96l-15.41,4.22-15.17,5c-5.04,1.68-10.13,3.23-15.04,5.3-9.88,3.95-19.84,7.6-29.41,12.22l-14.45,6.62-14.1,7.32c-9.5,4.66-18.45,10.36-27.6,15.6l-3.41,2.01-3.31,2.17-6.6,4.37c-4.37,2.96-8.83,5.77-13.1,8.85l-12.69,9.42-6.33,4.7-6.09,5.01-12.16,10.01c-4,3.39-7.81,7.01-11.69,10.54-12.99,11.81-25.07,24.54-36.6,37.66-2.24,2.55-.46,2.02.94.74,1.39-1.27,3.94-3.6,3.94-3.6,3.82-3.53,7.57-7.11,11.64-10.36Z"/><path class="cls-2" d="m1524.47,1227.89c-5.38,5.12-10.3,12.94-12.58,18.58s-29.81,74.57-51.12,108.69c-1.34,2.13-2.59,4.32-3.99,6.4l-4.26,6.23-8.5,12.49-9.07,12.09-4.53,6.06c-1.57,1.97-3.2,3.89-4.8,5.84l-9.65,11.67c-3.3,3.81-6.77,7.48-10.16,11.24-6.66,7.62-13.99,14.57-21.08,21.81-3.55,3.61-7.42,6.88-11.12,10.34l-5.61,5.13-2.81,2.56-2.92,2.42c-7.81,6.45-15.51,13.08-23.72,19.06-16,12.54-33.23,23.41-50.64,34.01-35.22,20.53-73.05,36.92-112.5,48.69l-14.88,4.12c-2.49.67-4.96,1.42-7.47,2.03l-7.55,1.69-15.12,3.38c-5.07.98-10.18,1.75-15.27,2.68-10.17,2.05-20.47,3.16-30.78,4.46-4.31.54-10.87,1.41-14.26,1.75-2,.2-6.42,1.37-1.2,1.47,15.65.32,31.36.04,47.03-1.25,5.22-.43,10.46-.82,15.68-1.35l15.61-2.11,7.82-1.06c2.6-.4,5.17-.94,7.76-1.4l15.53-2.9c5.18-.99,10.26-2.38,15.41-3.55l7.69-1.87,3.85-.95,3.79-1.14c10.09-3.08,20.32-5.86,30.22-9.61,4.98-1.8,10.01-3.47,14.95-5.38l14.71-6.04,7.36-3.04,7.21-3.38,14.43-6.77c37.88-19.26,73.66-43.11,105.86-71.29,7.87-7.23,16.05-14.18,23.44-21.94,3.76-3.81,7.61-7.55,11.29-11.44l10.79-11.93c1.79-2,3.62-3.96,5.38-5.99l5.11-6.22,10.22-12.45,9.61-12.93,4.79-6.49c1.58-2.18,3.01-4.45,4.52-6.68l8.95-13.43c2.93-4.51,5.58-9.2,8.38-13.8,5.72-9.13,10.59-18.75,15.7-28.24l1.9-3.57,1.72-3.66,3.43-7.32c2.23-4.91,4.7-9.71,6.73-14.71,4.01-10.01,8.46-19.87,11.84-30.13l5.38-15.28,4.64-15.53,2.32-7.77c.75-2.6,1.3-5.24,1.96-7.86l1.31-5.45c1.49-7.06-1.22-9.13-3.66-7.37-7.6,5.5-27.02,20.72-35.07,28.38Z"/></g><path class="cls-1" d="m1555.58,881.4c22.73.14,45.95,2.62,68.12,11.6,5.67,2.47,11.38,5.1,16.66,8.69,2.74,1.63,5.22,3.71,7.8,5.65,1.26,1.01,2.43,2.16,3.65,3.25,1.22,1.09,2.43,2.2,3.51,3.46,9.1,9.55,15.75,22.1,18.34,35.42,2.65,13.3,1.91,26.9-.78,39.54-1.3,6.36-3.07,12.55-5.22,18.53-2.09,6.02-4.53,11.84-7.17,17.53-5.28,11.37-11.47,22.17-18.21,32.46-6.74,10.3-13.92,20.22-21.56,29.7-15.23,19.01-31.77,36.7-49.14,53.39-17.32,16.73-35.52,32.42-54.17,47.44-18.64,15.05-37.95,29.15-57.52,42.83-19.64,13.58-39.72,26.46-60.03,38.9-81.52,49.38-168.09,89.68-257.64,121.22-44.88,15.5-90.48,28.94-136.87,38.87-11.57,2.56-23.24,4.73-34.87,6.91-11.7,1.92-23.36,3.97-35.12,5.43-22.8,3.09-45.73,5.14-68.66,5.81-.66.02-.67-.25-.02-.4,45.29-10.5,89.57-23.14,133.07-38.04,44.18-14.88,87.55-31.81,130.31-49.98,85.39-36.66,168.45-78.56,247.6-126.42,19.82-11.9,39.31-24.34,58.46-37.2,19.24-12.74,38-26.15,56.42-39.92,36.72-27.64,71.96-57.33,102.66-90.63,15.25-16.66,29.36-34.3,40.41-53.25,5.54-9.45,10.13-19.3,13.35-29.32,3.31-10.02,4.78-20.28,4.01-30.23-.68-9.98-4.38-19.49-10.41-27.86-5.96-8.46-14.63-15.34-24.13-21.14-9.61-5.7-20.29-10.1-31.3-13.67-10.27-3.42-20.91-5.91-31.68-8.1-.78-.16-.7-.47.13-.47Z"/></g></svg>